# xmcd
#
# Track frame offsets: 
#        150
#        10065
#        27545
#        46870
#        69442
#        89307
#        114775
#        140417
#        162410
#        184830
#        214220
#        238225
#        263202
#        287435
#        310325
#
# Disc length: 4568 seconds
#
# Revision: 7
# Processed by: cddbd v1.5.2PL0 Copyright (c) Steve Scherf et al.
# Submitted via: ExactAudioCopyFreeDBPlugin 1.0
#
DISCID=d011d60f
DTITLE=The Isley Brothers - It's Your Thing:  The Story of The Isley B
DTITLE=rothers
DYEAR=1999
DGENRE=Rhythm and Blues
TTITLE0=Harvest for the World (Prelude)
TTITLE1=Harvest for the World
TTITLE2=Groove with You
TTITLE3=For the Love of You
TTITLE4=Mission to Please You
TTITLE5=Between the Sheets
TTITLE6=Caravan of Love
TTITLE7=I'm So Proud
TTITLE8=Smooth Sailin' Tonight
TTITLE9=Voyage to Atlantis
TTITLE10=Take Me to the Next Phase (Parts 1 and 2)
TTITLE11=The Pride (Parts 1 and 2)
TTITLE12=(At Your Best) You Are Love
TTITLE13=Footsteps in the Dark (Parts 1 and 2)
TTITLE14=Don't Say Goodnight (It's Time for Love)
EXTD=ID3G:  42 YEAR: 1999
EXTT0=
EXTT1=
EXTT2=
EXTT3=
EXTT4=
EXTT5=
EXTT6=
EXTT7=
EXTT8=
EXTT9=
EXTT10=
EXTT11=
EXTT12=
EXTT13=
EXTT14=
PLAYORDER=
